Coordinates
version=1
nRows=49
nColumns=12
inDegrees=yes

Units are S.I. units (second, meters, Newtons, ...)
Angles are in degrees

endheader
time	SC_y	SC_z	SC_x	AC_y	AC_z	AC_x	GH_y	GH_z	GH_yy	EL_x	PS_y
       0.0              -43.77          26.71          12.48          31.23          4.423          19.73         -138.9          57.75          -39.1           75.4          112.6
   0.03355              -43.77          26.71          12.49          31.24          4.421          19.72         -138.9          57.74         -39.11          75.39          112.6
   0.06709              -43.77           26.7           12.5          31.24          4.418          19.72         -138.9          57.73         -39.11          75.38          112.5
    0.1006              -43.77           26.7           12.5          31.24          4.416          19.71         -138.9          57.72         -39.12          75.37          112.5
    0.1342              -43.77           26.7          12.51          31.24          4.413          19.71         -138.9          57.72         -39.12          75.36          112.5
    0.1677              -43.77          26.69          12.52          31.25          4.411           19.7         -138.9          57.71         -39.13          75.34          112.5
    0.2013              -43.77          26.69          12.53          31.25          4.408          19.69         -138.9           57.7         -39.13          75.33          112.5
    0.2348              -43.77          26.69          12.54          31.25          4.404          19.69         -138.9          57.69         -39.14          75.32          112.5
    0.2684              -43.76          26.68          12.55          31.25          4.401          19.68         -138.9          57.68         -39.15           75.3          112.5
    0.3019              -43.76          26.68          12.56          31.26          4.397          19.67         -138.9          57.67         -39.15          75.29          112.5
    0.3355              -43.76          26.67          12.57          31.26          4.393          19.66         -138.9          57.65         -39.16          75.27          112.5
     0.369              -43.76          26.66          12.58          31.27          4.389          19.65         -138.9          57.64         -39.17          75.25          112.5
    0.4025              -43.76          26.66           12.6          31.27          4.385          19.64         -138.9          57.63         -39.18          75.23          112.5
    0.4361              -43.76          26.65          12.61          31.27           4.38          19.63         -138.9          57.61         -39.19          75.21          112.5
    0.4696              -43.76          26.64          12.63          31.28          4.374          19.62         -138.9          57.59          -39.2          75.19          112.5
    0.5032              -43.76          26.64          12.65          31.29          4.368          19.61         -138.9          57.58         -39.21          75.17          112.4
    0.5367              -43.76          26.63          12.67          31.29          4.362          19.59         -138.9          57.56         -39.22          75.14          112.4
    0.5703              -43.76          26.62          12.69           31.3          4.355          19.58         -139.0          57.54         -39.23          75.11          112.4
    0.6038              -43.75          26.61          12.71           31.3          4.348          19.56         -139.0          57.51         -39.24          75.08          112.4
    0.6374              -43.75           26.6          12.73          31.31           4.34          19.54         -139.0          57.49         -39.26          75.05          112.4
    0.6709              -43.75          26.59          12.76          31.32          4.331          19.52         -139.0          57.46         -39.28          75.01          112.4
    0.7044              -43.75          26.57          12.79          31.33          4.321           19.5         -139.0          57.43         -39.29          74.97          112.3
     0.738              -43.75          26.56          12.82          31.34           4.31          19.47         -139.0          57.39         -39.32          74.92          112.3
    0.7715              -43.74          26.54          12.86          31.35          4.298          19.45         -139.0          57.35         -39.34          74.87          112.3
    0.8051              -43.74          26.52           12.9          31.36          4.284          19.42         -139.0          57.31         -39.36          74.81          112.3
    0.8386              -43.74           26.5          12.94          31.38          4.269          19.38         -139.1          57.27         -39.39          74.75          112.2
    0.8722              -43.73          26.48           13.0          31.39          4.252          19.34         -139.1          57.21         -39.42          74.68          112.2
    0.9057              -43.73          26.45          13.05          31.41          4.233           19.3         -139.1          57.15         -39.46           74.6          112.2
    0.9393              -43.72          26.43          13.12          31.43          4.212          19.25         -139.1          57.09          -39.5          74.51          112.1
    0.9728              -43.72          26.39          13.19          31.46          4.188           19.2         -139.2          57.01         -39.54          74.41          112.1
     1.006              -43.71          26.36          13.27          31.48           4.16          19.14         -139.2          56.92         -39.59          74.29          112.0
      1.04              -43.71          26.31          13.37          31.51          4.128          19.06         -139.3          56.82         -39.65          74.16          111.9
     1.073               -43.7          26.26          13.48          31.55          4.091          18.98         -139.3          56.71         -39.72          74.01          111.9
     1.107              -43.69          26.21          13.61          31.59          4.048          18.89         -139.4          56.58          -39.8          73.83          111.8
     1.141              -43.68          26.14          13.76          31.63          3.998          18.77         -139.4          56.42          -39.9          73.62          111.7
     1.174              -43.67          26.06          13.93          31.69          3.939          18.64         -139.5          56.24         -40.01          73.37          111.6
     1.208              -43.65          25.96          14.14          31.76          3.869          18.48         -139.6          56.02         -40.14          73.08          111.4
     1.241              -43.63          25.85           14.4          31.84          3.785          18.29         -139.7          55.75         -40.29          72.72          111.2
     1.275              -43.61          25.71           14.7          31.93          3.684          18.06         -139.8          55.44         -40.48           72.3          111.0
     1.308              -43.59          25.55          15.07          32.05           3.56          17.79         -140.0          55.05         -40.71          71.78          110.8
     1.342              -43.55          25.34          15.53          32.19          3.406          17.44         -140.2          54.57          -41.0          71.14          110.4
     1.375              -43.51          25.08           16.1          32.37          3.215          17.01         -140.5          53.97         -41.36          70.34          110.0
     1.409              -43.46          24.76          16.83           32.6          2.975          16.47         -140.8          53.22          -41.8          69.33          109.5
     1.442               -43.4          24.35          17.74          32.89          2.669          15.78         -141.2          52.26         -42.37          68.05          108.9
     1.476              -43.31          23.82          18.92          33.26          2.277           14.9         -141.7          51.04          -43.1          66.41          108.1
      1.51              -43.21          23.14          20.42          33.73          1.775          13.77         -142.3          49.47         -44.04           64.3          107.0
     1.543              -43.07          22.28          22.35          34.34          1.133          12.32         -143.2          47.46         -45.24          61.61          105.7
     1.577               -42.9          21.19          24.77           35.1         0.3257          10.51         -144.2          44.94         -46.74          58.23          104.0
      1.61              -42.69          19.86          27.72          36.03        -0.6578          8.291         -145.5          41.87         -48.57          54.11          102.0
